REM DIRINDEX 1\2,1\3,1\4,1\5
REM DIRNAME folder01,folder02,folder03,folder04,folder05
TITLE ""
FILE "1800_076.mp3" MP3
  TRACK 01 AUDIO
    TITLE "2:cjc044_1945"
    INDEX 01 00:00:00
  TRACK 02 AUDIO
    TITLE "0:"
    INDEX 01 00:01:05
  TRACK 03 AUDIO
    TITLE "3:cjc044_1946"
    INDEX 01 00:01:60
  TRACK 04 AUDIO
    TITLE "0:"
    INDEX 01 00:02:63
  TRACK 05 AUDIO
    TITLE "4:cjc044_1947"
    INDEX 01 00:03:41
  TRACK 06 AUDIO
    TITLE "0:"
    INDEX 01 00:04:56
  TRACK 07 AUDIO
    TITLE "5:cjc044_1948"
    INDEX 01 00:05:24
  TRACK 08 AUDIO
    TITLE "0:"
    INDEX 01 00:08:32
  TRACK 09 AUDIO
    TITLE "2:cjc044_1949"
    INDEX 01 00:10:21
  TRACK 10 AUDIO
    TITLE "0:"
    INDEX 01 00:11:35
  TRACK 11 AUDIO
    TITLE "3:cjc044_1950"
    INDEX 01 00:12:18
  TRACK 12 AUDIO
    TITLE "0:"
    INDEX 01 00:13:47
  TRACK 13 AUDIO
    TITLE "4:cjc044_1951"
    INDEX 01 00:14:33
  TRACK 14 AUDIO
    TITLE "0:"
    INDEX 01 00:15:50
  TRACK 15 AUDIO
    TITLE "5:cjc044_1952"
    INDEX 01 00:16:22
  TRACK 16 AUDIO
    TITLE "0:"
    INDEX 01 00:19:32
  TRACK 17 AUDIO
    TITLE "2:cjc044_1953"
    INDEX 01 00:21:13
  TRACK 18 AUDIO
    TITLE "0:"
    INDEX 01 00:22:27
  TRACK 19 AUDIO
    TITLE "3:cjc044_1954"
    INDEX 01 00:23:10
  TRACK 20 AUDIO
    TITLE "0:"
    INDEX 01 00:24:02
  TRACK 21 AUDIO
    TITLE "4:cjc044_1955"
    INDEX 01 00:24:65
  TRACK 22 AUDIO
    TITLE "0:"
    INDEX 01 00:26:03
  TRACK 23 AUDIO
    TITLE "5:cjc044_1956"
    INDEX 01 00:26:58
  TRACK 24 AUDIO
    TITLE "0:"
    INDEX 01 00:29:38
  TRACK 25 AUDIO
    TITLE "2:cjc044_1957"
    INDEX 01 00:31:27
  TRACK 26 AUDIO
    TITLE "0:"
    INDEX 01 00:32:41
  TRACK 27 AUDIO
    TITLE "3:cjc044_1958"
    INDEX 01 00:33:26
  TRACK 28 AUDIO
    TITLE "0:"
    INDEX 01 00:34:47
  TRACK 29 AUDIO
    TITLE "4:cjc044_1959"
    INDEX 01 00:35:33
  TRACK 30 AUDIO
    TITLE "0:"
    INDEX 01 00:36:48
  TRACK 31 AUDIO
    TITLE "5:cjc044_1960"
    INDEX 01 00:37:22
  TRACK 32 AUDIO
    TITLE "0:"
    INDEX 01 00:40:44
  TRACK 33 AUDIO
    TITLE "2:cjc044_1961"
    INDEX 01 00:42:29
  TRACK 34 AUDIO
    TITLE "0:"
    INDEX 01 00:43:44
  TRACK 35 AUDIO
    TITLE "3:cjc044_1962"
    INDEX 01 00:44:32
  TRACK 36 AUDIO
    TITLE "0:"
    INDEX 01 00:46:15
  TRACK 37 AUDIO
    TITLE "4:cjc044_1963"
    INDEX 01 00:46:72
  TRACK 38 AUDIO
    TITLE "0:"
    INDEX 01 00:48:14
  TRACK 39 AUDIO
    TITLE "5:cjc044_1964"
    INDEX 01 00:48:65
  TRACK 40 AUDIO
    TITLE "0:"
    INDEX 01 00:52:14
  TRACK 41 AUDIO
    TITLE "2:cjc044_1965"
    INDEX 01 00:54:05
  TRACK 42 AUDIO
    TITLE "0:"
    INDEX 01 00:55:06
  TRACK 43 AUDIO
    TITLE "3:cjc044_1966"
    INDEX 01 00:55:71
  TRACK 44 AUDIO
    TITLE "0:"
    INDEX 01 00:57:05
  TRACK 45 AUDIO
    TITLE "4:cjc044_1967"
    INDEX 01 00:57:70
  TRACK 46 AUDIO
    TITLE "0:"
    INDEX 01 00:58:71
  TRACK 47 AUDIO
    TITLE "5:cjc044_1968"
    INDEX 01 00:59:55
  TRACK 48 AUDIO
    TITLE "0:"
    INDEX 01 01:03:00
  TRACK 49 AUDIO
    TITLE "2:cjc044_1969"
    INDEX 01 01:04:58
  TRACK 50 AUDIO
    TITLE "0:"
    INDEX 01 01:06:06
  TRACK 51 AUDIO
    TITLE "3:cjc044_1970"
    INDEX 01 01:06:65
  TRACK 52 AUDIO
    TITLE "0:"
    INDEX 01 01:07:59
  TRACK 53 AUDIO
    TITLE "4:cjc044_1971"
    INDEX 01 01:08:40
  TRACK 54 AUDIO
    TITLE "0:"
    INDEX 01 01:09:63
  TRACK 55 AUDIO
    TITLE "5:cjc044_1972"
    INDEX 01 01:10:33
  TRACK 56 AUDIO
    TITLE "0:"
    INDEX 01 01:13:65
  TRACK 57 AUDIO
    TITLE "2:cjc044_1973"
    INDEX 01 01:15:52
  TRACK 58 AUDIO
    TITLE "0:"
    INDEX 01 01:16:71
  TRACK 59 AUDIO
    TITLE "3:cjc044_1974"
    INDEX 01 01:17:57
  TRACK 60 AUDIO
    TITLE "0:"
    INDEX 01 01:18:68
  TRACK 61 AUDIO
    TITLE "4:cjc044_1975"
    INDEX 01 01:19:56
  TRACK 62 AUDIO
    TITLE "0:"
    INDEX 01 01:21:02
  TRACK 63 AUDIO
    TITLE "5:cjc044_1976"
    INDEX 01 01:21:55
  TRACK 64 AUDIO
    TITLE "0:"
    INDEX 01 01:25:06
